<svg id="Layer_1" data-name="Layer 1" xmlns="http://www.w3.org/2000/svg" viewBox="0 0 463.55 76.95"><defs><style>.cls-1{fill:#ff7226;}.cls-2{fill:#0066b1;}</style></defs><title>logo-header</title><path class="cls-1" d="M408.23,623.55h20.34c8,0,15.48,3.66,15.48,13.8,0,10.62-6.06,14.76-15.48,14.76h-9.18v14.28H408.23V623.55Zm11.16,19.92h7.5c3.48,0,6-1.44,6-5.34s-2.58-5.64-6-5.64h-7.5v11Z" transform="translate(-408.23 -622.65)"/><path class="cls-1" d="M445.94,635.25h9.9v5.46H456c1.5-4,5-6.06,9.36-6.06a10.85,10.85,0,0,1,2.4.24v9.3a14.29,14.29,0,0,0-3.9-.6c-5,0-7.68,3.48-7.68,7.38v15.42h-10.2V635.25Z" transform="translate(-408.23 -622.65)"/><path class="cls-1" d="M483.81,634.35c9.66,0,16.44,7.14,16.44,16.5s-6.78,16.44-16.44,16.44-16.38-7.08-16.38-16.44S474.15,634.35,483.81,634.35Zm0,25.14c4.74,0,6.24-4.68,6.24-8.64s-1.5-8.7-6.24-8.7-6.18,4.74-6.18,8.7S479.07,659.48,483.81,659.48Z" transform="translate(-408.23 -622.65)"/><path class="cls-1" d="M521.28,641.85H515V656c0,2.46,1.44,3,3.66,3,0.84,0,1.74-.12,2.64-0.12v7.5c-1.86.06-3.72,0.3-5.58,0.3-8.7,0-10.92-2.52-10.92-11V641.85h-5.16v-6.6h5.16v-9.42H515v9.42h6.3v6.6Z" transform="translate(-408.23 -622.65)"/><path class="cls-1" d="M531.51,653.31c0.18,4.26,2.64,7.08,7,7.08a6.08,6.08,0,0,0,5.82-3.42h9.54c-1.86,7.2-8.52,10.32-15.48,10.32-10.14,0-17-6.12-17-16.56,0-9.54,7.62-16.38,16.8-16.38,11.16,0,16.74,8.4,16.26,19H531.51Zm12.66-5.7c-0.18-3.48-2.64-6.36-6.06-6.36-3.6,0-6,2.58-6.6,6.36h12.66Z" transform="translate(-408.23 -622.65)"/><path class="cls-1" d="M554.73,658.46L570.27,643H556v-7.8h27.24V643l-15.54,15.6h16.68v7.8H554.73v-7.92Z" transform="translate(-408.23 -622.65)"/><path class="cls-1" d="M597.43,631.35h-10.2v-7.8h10.2v7.8Zm-10.2,3.9h10.2v31.14h-10.2V635.25Z" transform="translate(-408.23 -622.65)"/><path class="cls-1" d="M616.71,634.35c9.66,0,16.44,7.14,16.44,16.5s-6.78,16.44-16.44,16.44-16.38-7.08-16.38-16.44S607,634.35,616.71,634.35Zm0,25.14c4.74,0,6.24-4.68,6.24-8.64s-1.5-8.7-6.24-8.7-6.18,4.74-6.18,8.7S612,659.48,616.71,659.48Z" transform="translate(-408.23 -622.65)"/><path class="cls-1" d="M635.9,635.25h9.9v4.26h0.12c1.86-3.18,6.06-5.16,9.78-5.16,10.38,0,11.22,7.56,11.22,12.06v20h-10.2V651.33c0-4.26.48-8.58-5.1-8.58-3.84,0-5.52,3.24-5.52,6.66v17H635.9V635.25Z" transform="translate(-408.23 -622.65)"/><path class="cls-1" d="M679.73,653.31c0.18,4.26,2.64,7.08,7,7.08a6.08,6.08,0,0,0,5.82-3.42h9.54c-1.86,7.2-8.52,10.32-15.48,10.32-10.14,0-17-6.12-17-16.56,0-9.54,7.62-16.38,16.8-16.38,11.16,0,16.74,8.4,16.26,19H679.73Zm12.66-5.7c-0.18-3.48-2.64-6.36-6.06-6.36-3.6,0-6,2.58-6.6,6.36h12.66Z" transform="translate(-408.23 -622.65)"/><path class="cls-2" d="M408.56,674.79h9.2c4.21,0,6.37,1.94,6.37,5.21,0,3.7-2.56,4.64-3.19,4.86v0.05c1.16,0.16,2.86,1,2.86,4.08,0,2.24.32,4.29,1.05,5.07h-3.62a5.38,5.38,0,0,1-.51-2.83c0-3.54-.73-5.1-3.83-5.1h-5v7.94h-3.37V674.79Zm3.37,8.77h5.53c2.13,0,3.29-1.05,3.29-3.08,0-2.46-1.59-2.94-3.35-2.94h-5.48v6Z" transform="translate(-408.23 -622.65)"/><path class="cls-2" d="M428.83,687.88c0,2.19,1.19,4.13,3.75,4.13a3.24,3.24,0,0,0,3.4-2.32h2.92a6.11,6.11,0,0,1-6.32,4.75c-4.37,0-6.83-3.05-6.83-7.34,0-4,2.59-7.37,6.75-7.37,4.4,0,7.1,4,6.59,8.15H428.83Zm7.18-2a3.59,3.59,0,1,0-7.18,0H436Z" transform="translate(-408.23 -622.65)"/><path class="cls-2" d="M453.85,693.34c0,4.18-2.46,6.26-6.86,6.26-2.81,0-6-1.08-6.24-4.35h3.08c0.38,1.75,1.78,2.05,3.35,2.05,2.48,0,3.59-1.27,3.59-3.56v-2.13h-0.05a4.78,4.78,0,0,1-4.18,2.46c-4.43,0-6.26-3.35-6.26-7.34,0-3.75,2.35-7,6.32-7a4.39,4.39,0,0,1,4.13,2.29h0.05v-1.92h3.08v13.23Zm-3.08-6.56c0-2.4-1.08-4.62-3.75-4.62s-3.67,2.54-3.67,4.86,1.11,4.62,3.67,4.62C449.75,691.64,450.77,689.15,450.77,686.78Z" transform="translate(-408.23 -622.65)"/><path class="cls-2" d="M456.38,674.79h3.08v2.92h-3.08v-2.92Zm0,5.32h3.08v14h-3.08v-14Z" transform="translate(-408.23 -622.65)"/><path class="cls-2" d="M461.41,687.07c0-4.26,2.56-7.34,7-7.34s7,3.08,7,7.34-2.56,7.37-7,7.37S461.41,691.37,461.41,687.07Zm11,0c0-2.4-1.21-4.91-4-4.91s-4,2.51-4,4.91,1.21,4.94,4,4.94S472.43,689.5,472.43,687.07Z" transform="translate(-408.23 -622.65)"/><path class="cls-2" d="M477.39,680.11h2.91v2.05l0.05,0.05a5,5,0,0,1,4.35-2.48c3,0,4.94,1.62,4.94,4.75v9.58h-3.08v-8.77c-0.05-2.19-.92-3.13-2.73-3.13a3.4,3.4,0,0,0-3.37,3.67v8.23h-3.08v-14Z" transform="translate(-408.23 -622.65)"/><path class="cls-2" d="M494.57,687.88c0,2.19,1.19,4.13,3.75,4.13a3.24,3.24,0,0,0,3.4-2.32h2.92a6.11,6.11,0,0,1-6.32,4.75c-4.37,0-6.83-3.05-6.83-7.34,0-4,2.59-7.37,6.75-7.37,4.4,0,7.1,4,6.59,8.15H494.57Zm7.18-2a3.59,3.59,0,1,0-7.18,0h7.18Z" transform="translate(-408.23 -622.65)"/><path class="cls-2" d="M520.81,674.79h3.59l7.42,19.27h-3.62L526.4,689H518.7l-1.81,5.1h-3.48Zm-1.19,11.61h5.88l-2.89-8.29h-0.08Z" transform="translate(-408.23 -622.65)"/><path class="cls-2" d="M544.63,694.07h-3v-1.94h-0.05a4.69,4.69,0,0,1-4,2.32c-3.64,0-5.21-1.84-5.21-5.48v-8.85h3.08v8.56c0,2.46,1,3.35,2.67,3.35,2.56,0,3.43-1.65,3.43-3.81v-8.1h3.08v14Z" transform="translate(-408.23 -622.65)"/><path class="cls-2" d="M545.85,680.11h2.32v-4.18h3.08v4.18H554v2.29h-2.78v7.45c0,1.27.11,1.92,1.48,1.92a5.26,5.26,0,0,0,1.3-.11V694c-0.67.05-1.32,0.16-2,.16-3.21,0-3.81-1.24-3.86-3.56V682.4h-2.32v-2.29Z" transform="translate(-408.23 -622.65)"/><path class="cls-2" d="M554.54,687.07c0-4.26,2.56-7.34,7-7.34s7,3.08,7,7.34-2.56,7.37-7,7.37S554.54,691.37,554.54,687.07Zm11,0c0-2.4-1.21-4.91-4-4.91s-4,2.51-4,4.91,1.21,4.94,4,4.94S565.56,689.5,565.56,687.07Z" transform="translate(-408.23 -622.65)"/><path class="cls-2" d="M570.52,680.11h2.91v2.05l0.05,0.05a5,5,0,0,1,4.35-2.48c3,0,4.94,1.62,4.94,4.75v9.58H579.7v-8.77c-0.05-2.19-.92-3.13-2.73-3.13a3.4,3.4,0,0,0-3.37,3.67v8.23h-3.08v-14Z" transform="translate(-408.23 -622.65)"/><path class="cls-2" d="M584.63,687.07c0-4.26,2.56-7.34,7-7.34s7,3.08,7,7.34-2.56,7.37-7,7.37S584.63,691.37,584.63,687.07Zm11,0c0-2.4-1.21-4.91-4-4.91s-4,2.51-4,4.91,1.21,4.94,4,4.94S595.64,689.5,595.64,687.07Z" transform="translate(-408.23 -622.65)"/><path class="cls-2" d="M600.61,680.11h2.92v1.94h0.08a4.67,4.67,0,0,1,4.29-2.32,4,4,0,0,1,3.91,2.32,5,5,0,0,1,4.37-2.32c2.94,0,4.67,1.3,4.67,4.7v9.64h-3.08v-8.15c0-2.21-.14-3.75-2.54-3.75-2.08,0-3,1.38-3,3.73v8.18h-3.08v-9c0-1.92-.59-2.94-2.46-2.94-1.59,0-3.05,1.3-3.05,3.62v8.29h-3.08v-14Z" transform="translate(-408.23 -622.65)"/><path class="cls-2" d="M635.13,691c0,0.76.16,1.05,0.73,1.05a4.24,4.24,0,0,0,.76-0.05v2.13a7.72,7.72,0,0,1-1.94.35,2.07,2.07,0,0,1-2.38-1.7,7.16,7.16,0,0,1-4.83,1.7c-2.51,0-4.78-1.35-4.78-4.08,0-3.48,2.78-4,5.37-4.35,2.21-.4,4.18-0.16,4.18-2,0-1.59-1.65-1.89-2.89-1.89-1.73,0-2.94.7-3.08,2.21H623.2c0.22-3.59,3.27-4.64,6.34-4.64,2.73,0,5.59,1.11,5.59,4V691Zm-3.08-3.89c-0.94.62-2.43,0.59-3.78,0.84s-2.51.7-2.51,2.32c0,1.38,1.75,1.78,2.83,1.78,1.35,0,3.46-.7,3.46-2.65v-2.29Z" transform="translate(-408.23 -622.65)"/><path class="cls-2" d="M645.31,674.79h13.31v2.92h-9.93v5h8.72v2.75h-8.72v8.56h-3.37V674.79Z" transform="translate(-408.23 -622.65)"/><path class="cls-2" d="M659.45,680.11h2.89v2.7h0.05a4.5,4.5,0,0,1,4.08-3.08,7.29,7.29,0,0,1,1.16.08v3a11,11,0,0,0-1.32-.13c-2.11,0-3.78,1.7-3.78,4.78v6.64h-3.08v-14Z" transform="translate(-408.23 -622.65)"/><path class="cls-2" d="M668.62,674.79h3.08v2.92h-3.08v-2.92Zm0,5.32h3.08v14h-3.08v-14Z" transform="translate(-408.23 -622.65)"/><path class="cls-2" d="M686.52,694.07h-3v-1.94h-0.05a4.69,4.69,0,0,1-4,2.32c-3.64,0-5.21-1.84-5.21-5.48v-8.85h3.08v8.56c0,2.46,1,3.35,2.67,3.35,2.56,0,3.43-1.65,3.43-3.81v-8.1h3.08v14Z" transform="translate(-408.23 -622.65)"/><path class="cls-2" d="M689.13,674.79h3.08v19.27h-3.08V674.79Z" transform="translate(-408.23 -622.65)"/><path class="cls-2" d="M694.83,674.79h3.08v2.92h-3.08v-2.92Zm0,5.32h3.08v14h-3.08v-14Z" transform="translate(-408.23 -622.65)"/><path class="cls-2" d="M705.93,674.79h3.51L714.27,690h0.05l4.94-15.25h3.43l-6.59,19.27h-3.75Z" transform="translate(-408.23 -622.65)"/><path class="cls-2" d="M724.8,687.88c0,2.19,1.19,4.13,3.75,4.13a3.24,3.24,0,0,0,3.4-2.32h2.91a6.11,6.11,0,0,1-6.32,4.75c-4.37,0-6.83-3.05-6.83-7.34,0-4,2.59-7.37,6.75-7.37,4.4,0,7.1,4,6.59,8.15H724.8Zm7.18-2a3.59,3.59,0,1,0-7.18,0H732Z" transform="translate(-408.23 -622.65)"/><path class="cls-2" d="M736.79,680.11h2.92v2.05l0.05,0.05a5,5,0,0,1,4.35-2.48c3,0,4.94,1.62,4.94,4.75v9.58H746v-8.77c-0.05-2.19-.92-3.13-2.73-3.13a3.4,3.4,0,0,0-3.37,3.67v8.23h-3.08v-14Z" transform="translate(-408.23 -622.65)"/><path class="cls-2" d="M754,687.88c0,2.19,1.19,4.13,3.75,4.13a3.24,3.24,0,0,0,3.4-2.32H764a6.11,6.11,0,0,1-6.32,4.75c-4.37,0-6.83-3.05-6.83-7.34,0-4,2.59-7.37,6.75-7.37,4.4,0,7.1,4,6.59,8.15H754Zm7.18-2a3.59,3.59,0,1,0-7.18,0h7.18Z" transform="translate(-408.23 -622.65)"/><path class="cls-2" d="M765.3,680.11h11.34v2.16l-8,9.37H777v2.43H764.76v-2.16l7.72-9.37H765.3v-2.43Z" transform="translate(-408.23 -622.65)"/><path class="cls-2" d="M778.49,674.79h3.08v2.92h-3.08v-2.92Zm0,5.32h3.08v14h-3.08v-14Z" transform="translate(-408.23 -622.65)"/><path class="cls-2" d="M795.92,691c0,0.76.16,1.05,0.73,1.05a4.24,4.24,0,0,0,.76-0.05v2.13a7.72,7.72,0,0,1-1.94.35,2.06,2.06,0,0,1-2.37-1.7,7.16,7.16,0,0,1-4.83,1.7c-2.51,0-4.78-1.35-4.78-4.08,0-3.48,2.78-4,5.37-4.35,2.21-.4,4.18-0.16,4.18-2,0-1.59-1.65-1.89-2.89-1.89-1.73,0-2.94.7-3.08,2.21H784c0.22-3.59,3.27-4.64,6.34-4.64,2.73,0,5.59,1.11,5.59,4V691Zm-3.08-3.89c-0.95.62-2.43,0.59-3.78,0.84s-2.51.7-2.51,2.32c0,1.38,1.75,1.78,2.83,1.78,1.35,0,3.46-.7,3.46-2.65v-2.29Z" transform="translate(-408.23 -622.65)"/><path class="cls-2" d="M822.91,694.07h-2.16l-0.51-2.27a7,7,0,0,1-5.8,2.73c-5.78,0-9.23-4.59-9.23-10.1s3.46-10.1,9.23-10.1c4.21,0,7.75,2.24,8.26,6.59h-3.29c-0.32-2.54-2.54-3.83-5-3.83-4.13,0-5.86,3.64-5.86,7.34s1.73,7.34,5.86,7.34c3.46,0.05,5.34-2,5.4-5.29h-5.13v-2.56h8.21v10.15Z" transform="translate(-408.23 -622.65)"/><path class="cls-2" d="M825.71,674.79h3.08v2.92h-3.08v-2.92Zm0,5.32h3.08v14h-3.08v-14Z" transform="translate(-408.23 -622.65)"/><path class="cls-2" d="M843.62,694.07h-3v-1.94h-0.05a4.69,4.69,0,0,1-4,2.32c-3.64,0-5.21-1.84-5.21-5.48v-8.85h3.08v8.56c0,2.46,1,3.35,2.67,3.35,2.56,0,3.43-1.65,3.43-3.81v-8.1h3.08v14Z" transform="translate(-408.23 -622.65)"/><path class="cls-2" d="M846.22,674.79h3.08v19.27h-3.08V674.79Z" transform="translate(-408.23 -622.65)"/><path class="cls-2" d="M851.93,674.79H855v2.92h-3.08v-2.92Zm0,5.32H855v14h-3.08v-14Z" transform="translate(-408.23 -622.65)"/><path class="cls-2" d="M869.35,691c0,0.76.16,1.05,0.73,1.05a4.24,4.24,0,0,0,.76-0.05v2.13a7.72,7.72,0,0,1-1.94.35,2.06,2.06,0,0,1-2.37-1.7,7.16,7.16,0,0,1-4.83,1.7c-2.51,0-4.78-1.35-4.78-4.08,0-3.48,2.78-4,5.37-4.35,2.21-.4,4.18-0.16,4.18-2,0-1.59-1.65-1.89-2.89-1.89-1.73,0-2.94.7-3.08,2.21h-3.08c0.22-3.59,3.27-4.64,6.34-4.64,2.73,0,5.59,1.11,5.59,4V691Zm-3.08-3.89c-0.95.62-2.43,0.59-3.78,0.84s-2.51.7-2.51,2.32c0,1.38,1.75,1.78,2.83,1.78,1.35,0,3.46-.7,3.46-2.65v-2.29Z" transform="translate(-408.23 -622.65)"/><path class="cls-2" d="M749.71,638.85c-0.6-4.32-4-6.6-8.64-6.6-7.2,0-10,6.36-10,12.72s2.76,12.72,10,12.72c5.22,0,8.22-3,8.64-7.92h11.16c-0.6,11-8.7,17.52-19.56,17.52-13,0-21.36-9.9-21.36-22.32s8.4-22.32,21.36-22.32c9.24,0,19.26,5.88,19.56,16.2H749.71Z" transform="translate(-408.23 -622.65)"/><path class="cls-2" d="M774.81,631.35h-10.2v-7.8h10.2v7.8Zm-10.2,3.9h10.2v31.14h-10.2V635.25Z" transform="translate(-408.23 -622.65)"/><path class="cls-2" d="M798.27,666.38H786.51l-10.38-31.14h10.62l5.7,20.58h0.12l5.76-20.58h10.38Z" transform="translate(-408.23 -622.65)"/><path class="cls-2" d="M820.26,631.35h-10.2v-7.8h10.2v7.8Zm-10.2,3.9h10.2v31.14h-10.2V635.25Z" transform="translate(-408.23 -622.65)"/><path class="cls-2" d="M825.23,623.55h10.2v42.84h-10.2V623.55Z" transform="translate(-408.23 -622.65)"/><path class="cls-2" d="M848.89,653.31c0.18,4.26,2.64,7.08,7,7.08a6.08,6.08,0,0,0,5.82-3.42h9.54c-1.86,7.2-8.52,10.32-15.48,10.32-10.14,0-17-6.12-17-16.56,0-9.54,7.62-16.38,16.8-16.38,11.16,0,16.74,8.4,16.26,19H848.89Zm12.66-5.7c-0.18-3.48-2.64-6.36-6.06-6.36-3.6,0-6,2.58-6.6,6.36h12.66Z" transform="translate(-408.23 -622.65)"/></svg>