<?xml version="1.0" encoding="UTF-8" standalone="no"?>
<svg
   xmlns:dc="http://purl.org/dc/elements/1.1/"
   xmlns:cc="http://creativecommons.org/ns#"
   xmlns:rdf="http://www.w3.org/1999/02/22-rdf-syntax-ns#"
   xmlns:svg="http://www.w3.org/2000/svg"
   xmlns="http://www.w3.org/2000/svg"
   xmlns:sodipodi="http://sodipodi.sourceforge.net/DTD/sodipodi-0.dtd"
   xmlns:inkscape="http://www.inkscape.org/namespaces/inkscape"
   viewBox="0 0 175.74 64.39"
   version="1.1"
   id="svg104"
   sodipodi:docname="numero-verde-new.svg"
   inkscape:version="0.92.3 (d244b95, 2018-08-02)">
  <metadata
     id="metadata108">
    <rdf:RDF>
      <cc:Work
         rdf:about="">
        <dc:format>image/svg+xml</dc:format>
        <dc:type
           rdf:resource="http://purl.org/dc/dcmitype/StillImage" />
        <dc:title>Asset 1</dc:title>
      </cc:Work>
    </rdf:RDF>
  </metadata>
  <sodipodi:namedview
     pagecolor="#ffffff"
     bordercolor="#666666"
     borderopacity="1"
     objecttolerance="10"
     gridtolerance="10"
     guidetolerance="10"
     inkscape:pageopacity="0"
     inkscape:pageshadow="2"
     inkscape:window-width="1853"
     inkscape:window-height="1025"
     id="namedview106"
     showgrid="false"
     inkscape:zoom="4.1083417"
     inkscape:cx="151.52399"
     inkscape:cy="38.079766"
     inkscape:window-x="67"
     inkscape:window-y="27"
     inkscape:window-maximized="1"
     inkscape:current-layer="Layer_1-2" />
  <defs
     id="defs4">
    <style
       id="style2">.cls-1{fill:#31a241;}</style>
  </defs>
  <title
     id="title6">Asset 1</title>
  <g
     id="Layer_2"
     data-name="Layer 2">
    <g
       id="Layer_1-2"
       data-name="Layer 1">
      <path
         class="cls-1"
         d="M6.54,63.64s6.61-.12,9.05-.12,2.33-.71,2.33-.71l-1-13.21c-.4-2.84-1-2.64-1-2.64l-3.25-.2a4.89,4.89,0,0,1-4-4.19c-1-4.82-.12-19.68-.12-19.68.2-6.3,9-6.59,9-6.59l2.84-13V2.07l-1-1.22-11-.1L6.56,2.69C5.34,4.52,2.09,16.51,2.09,16.51S-4.2,39.92,5,62"
         id="path8" />
      <path
         class="cls-1"
         d="m 167.84,61.59 c 6.53,0 7.9,-3.63 7.9,-6.68 v -41 c 0,-5.4 -2.43,-8.4945254 -6.67,-8.5 l -66.65055,-0.086057 c -1.58667,-0.00205 -1.58667,2.3779513 0,2.38 L 169.07,7.79 c 2.85,0.00368 4.3,2.06 4.3,6.12 v 41 c 0,2.13 -0.66,4.3 -5.52,4.3 L 114.32,59 c -1.58667,0 -1.58667,2.38 0,2.38 z"
         id="path10"
         inkscape:connector-curvature="0"
         style="fill:#31a241"
         sodipodi:nodetypes="csssssssscccc" />
      <path
         class="cls-1"
         d="M24.47,0H27.7L29.2,7.3h0V0h1.83V10h-3L26.32,1.65h0V10H24.47Z"
         id="path12" />
      <path
         class="cls-1"
         d="M34.75,9h0a1.51,1.51,0,0,1-1.62,1.1c-1,0-1.51-.69-1.51-1.85V2h2.23V7.56c0,.35,0,.73.45.73s.48-.38.48-.73V2H37V10H34.75Z"
         id="path14" />
      <path
         class="cls-1"
         d="M39.77,3h0a1.5,1.5,0,0,1,1.55-1.17A1.34,1.34,0,0,1,42.79,3h0a1.46,1.46,0,0,1,1.54-1.17c1.11,0,1.46.72,1.46,1.7V10H43.68V4.44c0-.35,0-.73-.45-.73s-.44.38-.44.73V10H40.65V4.44c0-.35,0-.73-.45-.73s-.44.38-.44.73V10H37.62V2h2.14Z"
         id="path16" />
      <path
         class="cls-1"
         d="M48.7,6.25V7.89c0,.48.17.77.46.77s.46-.3.46-.77v-1h2.23V8c0,1.52-1.13,2.1-2.69,2.1S46.47,9.48,46.47,8V4.14c0-1.45,1-2.27,2.69-2.27,1.42,0,2.69.54,2.69,2.27V6.25Zm.93-1.34V3.82a.47.47,0,1,0-.93,0v1.1Z"
         id="path18" />
      <path
         class="cls-1"
         d="M54.7,3h0a1.65,1.65,0,0,1,1.61-1.16,1.4,1.4,0,0,1,1.51,1.58V6.32H55.63v-2c0-.32-.1-.66-.46-.66s-.46.34-.46.66V10H52.48V2H54.7Z"
         id="path20" />
      <path
         class="cls-1"
         d="M63.86,8c0,1.49-1.27,2.14-2.69,2.14S58.48,9.48,58.48,8V4.14c0-1.45,1-2.27,2.69-2.27s2.69.82,2.69,2.27ZM60.7,8.1c0,.3.11.56.46.56s.46-.27.46-.56V3.9c0-.3-.11-.56-.46-.56s-.46.27-.46.56Z"
         id="path22" />
      <path
         class="cls-1"
         d="M67.55,0h2.51l.56,7.73h0l1-7.73h2.18L72.17,10H69.1Z"
         id="path24" />
      <path
         class="cls-1"
         d="M76,6.25V7.89c0,.48.17.77.46.77s.46-.3.46-.77v-1h2.23V8c0,1.52-1.13,2.1-2.69,2.1S73.77,9.48,73.77,8V4.14c0-1.45,1-2.27,2.69-2.27,1.42,0,2.69.54,2.69,2.27V6.25Zm.93-1.34V3.82a.47.47,0,1,0-.93,0v1.1Z"
         id="path26" />
      <path
         class="cls-1"
         d="M82,3h0a1.65,1.65,0,0,1,1.61-1.16,1.4,1.4,0,0,1,1.51,1.58V6.32H82.92v-2c0-.32-.1-.66-.46-.66S82,4,82,4.37V10H79.77V2H82Z"
         id="path28" />
      <path
         class="cls-1"
         d="M88.93,9h0c-.11.8-.72,1.11-1.54,1.11-1.23,0-1.59-1-1.59-2V3.66c0-1,.42-1.79,1.55-1.79a1.54,1.54,0,0,1,1.58,1.2h0V0h2.22V10H88.93ZM88,7.75c0,.35.2.55.46.55s.46-.2.46-.55V4.25c0-.35-.2-.55-.46-.55s-.46.2-.46.55Z"
         id="path30" />
      <path
         class="cls-1"
         d="M94,6.25V7.89c0,.48.17.77.46.77s.46-.3.46-.77v-1h2.22V8c0,1.52-1.13,2.1-2.69,2.1S91.77,9.48,91.77,8V4.14c0-1.45,1-2.27,2.69-2.27,1.42,0,2.69.54,2.69,2.27V6.25Zm.93-1.34V3.82a.47.47,0,1,0-.93,0v1.1Z"
         id="path32" />
      <path
         class="cls-1"
         d="M24.59,64.19v-10h2.84c1.84,0,3,.42,3,2.14V58.2c0,1.5-1.33,2.15-2.7,2.15h-.85v3.84Zm2.32-5.27h.36c.81,0,.87-.45.87-1.62s-.06-1.64-.87-1.64h-.36Z"
         id="path52" />
      <path
         class="cls-1"
         d="M33.28,57.25h0a1.64,1.64,0,0,1,1.59-1.15,1.39,1.39,0,0,1,1.5,1.57v2.85H34.2V58.58c0-.32-.1-.66-.46-.66s-.46.33-.46.66v5.62H31.07v-8h2.21Z"
         id="path54" />
      <path
         class="cls-1"
         d="M42.37,62.17c0,1.48-1.26,2.12-2.67,2.12S37,63.65,37,62.17V58.35c0-1.44,1-2.25,2.67-2.25s2.67.81,2.67,2.25Zm-3.13.11c0,.29.11.56.46.56s.46-.27.46-.56V58.11c0-.29-.11-.56-.46-.56s-.46.27-.46.56Z"
         id="path56" />
      <path
         class="cls-1"
         d="M42.79,57.65V56.2h.74V54.76h2.21V56.2h1v1.45h-1V62c0,.48,0,.73.53.73h.43v1.45H44.9c-1.1,0-1.37-.62-1.37-1.66V57.65Z"
         id="path58" />
      <path
         class="cls-1"
         d="M49.33,60.45v1.62c0,.48.17.77.46.77s.46-.29.46-.77V61h2.21v1.17c0,1.51-1.12,2.08-2.67,2.08s-2.67-.64-2.67-2.12V58.35c0-1.44,1-2.25,2.67-2.25,1.41,0,2.67.53,2.67,2.25v2.1Zm.92-1.33V58a.46.46,0,1,0-.92,0v1.09Z"
         id="path60" />
      <path
         class="cls-1"
         d="M52.81,64.19V62.74l2.05-5.09H52.81V56.2h4.5v1.23l-2.14,5.31h2.21v1.45Z"
         id="path62" />
      <path
         class="cls-1"
         d="M57.75,55.65V54.24H60v1.41Zm0,8.54v-8H60v8Z"
         id="path64" />
      <path
         class="cls-1"
         d="M65.92,62.17c0,1.48-1.26,2.12-2.67,2.12s-2.67-.64-2.67-2.12V58.35c0-1.44,1-2.25,2.67-2.25s2.67.81,2.67,2.25Zm-3.13.11c0,.29.11.56.46.56s.46-.27.46-.56V58.11c0-.29-.11-.56-.46-.56s-.46.27-.46.56Z"
         id="path66" />
      <path
         class="cls-1"
         d="M68.75,57.19h0a1.5,1.5,0,0,1,1.61-1.09c1,0,1.5.68,1.5,1.83v6.26H69.67V58.65c0-.35,0-.73-.45-.73s-.48.38-.48.73v5.55H66.54v-8h2.21Z"
         id="path68" />
      <path
         class="cls-1"
         d="M74.7,60.45v1.62c0,.48.17.77.46.77s.46-.29.46-.77V61h2.21v1.17c0,1.51-1.12,2.08-2.67,2.08s-2.67-.64-2.67-2.12V58.35c0-1.44,1-2.25,2.67-2.25,1.41,0,2.67.53,2.67,2.25v2.1Zm.92-1.33V58a.46.46,0,1,0-.92,0v1.09Z"
         id="path70" />
      <path
         class="cls-1"
         d="M87.56,60.32v1.31c0,1.86-1,2.75-2.95,2.75a2.59,2.59,0,0,1-2.92-2.91V57A2.59,2.59,0,0,1,84.62,54c1.69,0,2.95.5,2.95,2.66v1.09H85.24V56.42c0-.41-.13-.78-.63-.78s-.6.38-.6.78V62c0,.41.13.78.6.78s.63-.38.63-.78V60.32Z"
         id="path72" />
      <path
         class="cls-1"
         d="M88.19,55.65V54.24H90.4v1.41Zm0,8.54v-8H90.4v8Z"
         id="path74" />
      <path
         class="cls-1"
         d="M90.88,56.2h2.24l.74,6.21h0l.74-6.21h1.9l-1.44,8H92.4Z"
         id="path76" />
      <path
         class="cls-1"
         d="M97,55.65V54.24h2.21v1.41Zm0,8.54v-8h2.21v8Z"
         id="path78" />
      <path
         class="cls-1"
         d="M99.85,64.19v-10h2.21v10Z"
         id="path80" />
      <path
         class="cls-1"
         d="M104.9,60.45v1.62c0,.48.17.77.46.77s.46-.29.46-.77V61H108v1.17c0,1.51-1.12,2.08-2.67,2.08s-2.67-.64-2.67-2.12V58.35c0-1.44,1-2.25,2.67-2.25,1.41,0,2.67.53,2.67,2.25v2.1Zm.92-1.33V58a.46.46,0,1,0-.92,0v1.09Z"
         id="path82" />
      <path
         d="M38,39.35c0,3.88-3.11,5.55-6.78,5.55-3.91,0-6.47-1.85-6.47-5.67V36.86A3.82,3.82,0,0,1,28.18,33v-.12A3.92,3.92,0,0,1,24.76,29V27.34c0-4.19,4-5.24,6.78-5.24,3.27,0,6.47,1.17,6.47,5.18v1.94a4.16,4.16,0,0,1-3.45,3.7V33c1.82.4,3.45,1,3.45,4.44Zm-8.13-9c0,1.08.59,1.29,1.48,1.29s1.54-.19,1.54-1.42V27.09c0-1-.46-1.48-1.51-1.48a1.35,1.35,0,0,0-1.51,1.45Zm0,9.89c0,1,.68,1.17,1.57,1.17s1.45-.25,1.45-1.17V36.3c0-.92-.43-1.48-1.54-1.48s-1.48.62-1.48,1.45Z"
         id="path84" />
      <path
         d="M52.15,38.92c0,4.19-2.53,6-6.47,6s-6.5-1.79-6.5-6V28.51c0-5.18,3.7-6.41,6.56-6.41,3.48,0,6.41,1.23,6.41,6.41ZM47,27.09c0-1.08-.59-1.48-1.39-1.48s-1.36.4-1.36,1.48V39.91c0,1.08.55,1.48,1.36,1.48S47,41,47,39.91Z"
         id="path86" />
      <path
         d="M66.45,38.92c0,4.19-2.53,6-6.47,6s-6.5-1.79-6.5-6V28.51c0-5.18,3.7-6.41,6.56-6.41,3.48,0,6.41,1.23,6.41,6.41ZM61.33,27.09c0-1.08-.59-1.48-1.39-1.48s-1.36.4-1.36,1.48V39.91c0,1.08.55,1.48,1.36,1.48s1.39-.4,1.39-1.48Z"
         id="path88" />
      <path
         d="M80,35.75v3.94c0,1,.52,1.69,1.39,1.69s1.42-.68,1.42-1.69V34.24c0-1-.52-1.69-1.39-1.69A1.7,1.7,0,0,0,80,34.08H74.89V22.53H87.76v3.2h-8c-.06,1.39-.15,2.77-.22,4.16h.06a5.67,5.67,0,0,1,3.82-1.51c2.65,0,4.5,1.6,4.5,5.18v5.11c0,4.74-3.2,6.22-6.53,6.22-3.51,0-6.5-1.79-6.5-5V35.75Z"
         id="path90" />
      <path
         d="M102.18,38.92c0,4.19-2.53,6-6.47,6s-6.5-1.79-6.5-6V28.51c0-5.18,3.7-6.41,6.56-6.41,3.48,0,6.41,1.23,6.41,6.41ZM97.07,27.09c0-1.08-.58-1.48-1.39-1.48s-1.36.4-1.36,1.48V39.91c0,1.08.55,1.48,1.36,1.48s1.39-.4,1.39-1.48Z"
         id="path92" />
      <path
         d="M116.47,38.92c0,4.19-2.53,6-6.47,6s-6.5-1.79-6.5-6V28.51c0-5.18,3.7-6.41,6.56-6.41,3.48,0,6.41,1.23,6.41,6.41Zm-5.11-11.83c0-1.08-.58-1.48-1.39-1.48s-1.36.4-1.36,1.48V39.91c0,1.08.55,1.48,1.36,1.48s1.39-.4,1.39-1.48Z"
         id="path94" />
      <path
         d="M130.12,36v3.7c0,.89.25,1.66,1.29,1.66s1.33-.77,1.33-1.66V36.95c0-1.88-1-2-2.43-2h-1.73V31.46h2c1.11,0,2.19-.43,2.19-1.94V27a1.29,1.29,0,0,0-1.33-1.36c-1.32,0-1.29,1.36-1.29,2.37v2.43H125V27.27c0-4.22,3.91-5.18,6.35-5.18,3.17,0,6.5,1.23,6.5,4.9v1.39c0,3.11-1.23,4.22-3.17,4.65,0,0,0,0,0,0v.19c2,.28,3.2,1.14,3.2,4V39.6c0,3.79-3,5.3-6.5,5.3-4.07,0-6.35-1.54-6.35-5.11V36Z"
         id="path96" />
      <path
         d="M152.21,38.92c0,4.19-2.53,6-6.47,6s-6.5-1.79-6.5-6V28.51c0-5.18,3.7-6.41,6.56-6.41,3.48,0,6.41,1.23,6.41,6.41ZM147.1,27.09c0-1.08-.58-1.48-1.39-1.48s-1.36.4-1.36,1.48V39.91c0,1.08.55,1.48,1.36,1.48s1.39-.4,1.39-1.48Z"
         id="path98" />
      <path
         d="M166.5,38.92c0,4.19-2.53,6-6.47,6s-6.5-1.79-6.5-6V28.51c0-5.18,3.7-6.41,6.56-6.41,3.48,0,6.41,1.23,6.41,6.41Zm-5.11-11.83c0-1.08-.58-1.48-1.39-1.48s-1.36.4-1.36,1.48V39.91c0,1.08.55,1.48,1.36,1.48s1.39-.4,1.39-1.48Z"
         id="path100" />
    </g>
  </g>
</svg>
